<?xml version="1.0" encoding="utf-8"?>
<!-- Generator: Adobe Illustrator 27.0.0, SVG Export Plug-In . SVG Version: 6.00 Build 0)  -->
<svg version="1.1" id="圖層_1" xmlns="http://www.w3.org/2000/svg" xmlns:xlink="http://www.w3.org/1999/xlink" x="0px" y="0px"
	 viewBox="0 0 42 42" style="enable-background:new 0 0 42 42;" xml:space="preserve">
<style type="text/css">
	.st0{fill:none;stroke:#000000;stroke-miterlimit:10;}
</style>
<g>
	<g>
		<line class="st0" x1="20.96" y1="20" x2="20.96" y2="32"/>
		<polyline class="st0" points="26.06,27.4 20.96,32.5 15.87,27.4 		"/>
	</g>
	<g>
		<path d="M4.4,21.82l0.45-1.84l0.34,0.08L4.85,21.5l1,0.24l0.3-1.21l0.34,0.08l-0.3,1.21l1.16,0.28l0.36-1.48l0.34,0.08L7.59,22.6
			L4.4,21.82z"/>
		<path d="M6.95,18.96l-1.81,0.16l0.19-0.42l0.95-0.06c0.17-0.01,0.32-0.02,0.54-0.04l0.01-0.02c-0.14-0.16-0.24-0.27-0.34-0.41
			L5.9,17.43l0.18-0.4l1.1,1.48l1.92-0.18l-0.19,0.42l-1,0.08c-0.18,0.01-0.37,0.03-0.6,0.04L7.3,18.88
			c0.14,0.17,0.26,0.31,0.37,0.45l0.61,0.8l-0.18,0.4L6.95,18.96z"/>
		<path d="M6.61,16.13l0.54-0.77c0.42-0.6,0.91-0.87,1.5-0.46c0.57,0.4,0.55,0.99,0.14,1.58l-0.31,0.44l1.07,0.75L9.3,18.02
			L6.61,16.13z M8.47,16.33c0.33-0.47,0.32-0.82-0.07-1.08c-0.39-0.27-0.68-0.12-1.01,0.35l-0.27,0.38l1.07,0.75L8.47,16.33z"/>
		<path d="M8.61,13.53l0.3-0.29l2.05,2.08l1.02-1l0.25,0.25l-1.31,1.3L8.61,13.53z"/>
		<path d="M11.36,13.11c-0.59-0.87-0.46-1.73,0.23-2.19c0.69-0.46,1.52-0.25,2.11,0.62c0.58,0.88,0.47,1.75-0.21,2.21
			C12.8,14.21,11.95,13.98,11.36,13.11z M13.34,11.78c-0.46-0.68-1.06-0.89-1.55-0.56c-0.49,0.33-0.53,0.96-0.07,1.64
			c0.46,0.68,1.07,0.91,1.56,0.58C13.77,13.12,13.79,12.47,13.34,11.78z"/>
		<path d="M13.93,9.64l0.96-0.38c0.62-0.24,1.16-0.2,1.41,0.44c0.24,0.61-0.09,1.08-0.71,1.32l-0.57,0.22l0.51,1.29l-0.39,0.15
			L13.93,9.64z M15.4,10.74c0.48-0.19,0.66-0.48,0.51-0.88c-0.16-0.4-0.48-0.44-0.95-0.26l-0.51,0.2l0.45,1.13L15.4,10.74z
			 M15.46,10.96l0.23-0.32l1.56,1.23l-0.44,0.17L15.46,10.96z"/>
		<path d="M17.06,8.58l1.86-0.34l0.06,0.35l-1.45,0.27l0.19,1.01l1.22-0.23L19,9.98l-1.22,0.22L18,11.38l1.5-0.28l0.06,0.35
			l-1.91,0.35L17.06,8.58z"/>
		<path d="M22.47,8.17L23.4,8.3c0.73,0.1,1.18,0.42,1.08,1.13c-0.1,0.68-0.63,0.93-1.34,0.83l-0.53-0.08l-0.19,1.29L22,11.41
			L22.47,8.17z M23.13,9.92C23.7,10,24,9.83,24.07,9.37c0.07-0.47-0.2-0.66-0.77-0.74l-0.46-0.07l-0.19,1.29L23.13,9.92z"/>
		<path d="M25.74,8.77l0.97,0.35c0.63,0.22,1,0.61,0.77,1.26c-0.22,0.62-0.78,0.75-1.41,0.53L25.5,10.7l-0.47,1.31l-0.39-0.14
			L25.74,8.77z M26.13,10.57c0.48,0.17,0.81,0.07,0.96-0.33c0.15-0.41-0.07-0.65-0.55-0.82l-0.52-0.19l-0.41,1.15L26.13,10.57z
			 M26.04,10.77l0.38-0.09l0.36,1.96l-0.45-0.16L26.04,10.77z"/>
		<path d="M27.84,11.31c0.55-0.89,1.38-1.13,2.08-0.7c0.7,0.43,0.85,1.28,0.3,2.17c-0.55,0.89-1.39,1.15-2.09,0.72
			C27.43,13.07,27.29,12.2,27.84,11.31z M29.86,12.56c0.43-0.69,0.37-1.33-0.13-1.63c-0.5-0.31-1.09-0.08-1.52,0.61
			c-0.43,0.69-0.38,1.35,0.12,1.66S29.43,13.25,29.86,12.56z"/>
		<path d="M29.72,13.93l0.36,0.04c-0.07,0.29,0,0.5,0.17,0.65c0.26,0.24,0.52,0.21,0.86-0.16l1.54-1.68l0.31,0.28l-1.56,1.71
			c-0.38,0.42-0.88,0.58-1.36,0.14C29.72,14.64,29.63,14.31,29.72,13.93z"/>
		<path d="M33.85,14.03l1.15,1.5l-0.28,0.22l-0.9-1.17l-0.82,0.63l0.76,0.99l-0.28,0.22l-0.76-0.99l-0.95,0.73l0.93,1.21l-0.28,0.22
			l-1.18-1.54L33.85,14.03z"/>
		<path d="M34.1,17.14c0.95-0.48,1.8-0.21,2.18,0.54c0.18,0.36,0.15,0.72,0.04,0.99l-0.35-0.08c0.09-0.24,0.1-0.49-0.02-0.74
			c-0.28-0.55-0.92-0.7-1.65-0.33c-0.74,0.37-1.02,0.95-0.74,1.51c0.14,0.28,0.37,0.43,0.67,0.52l-0.13,0.32
			c-0.38-0.1-0.68-0.31-0.88-0.69C32.85,18.45,33.14,17.62,34.1,17.14z"/>
		<path d="M36.83,20.26l-0.27-0.96l0.34-0.1l0.66,2.31l-0.34,0.1l-0.27-0.96l-2.82,0.8l-0.12-0.4L36.83,20.26z"/>
		<path d="M34.82,22.41l0.31,0.22c-0.22,0.26-0.34,0.6-0.31,0.94c0.05,0.43,0.29,0.66,0.6,0.63c0.33-0.04,0.42-0.28,0.52-0.61
			l0.16-0.49c0.1-0.32,0.29-0.7,0.77-0.75c0.5-0.05,0.91,0.34,0.97,0.94c0.04,0.39-0.09,0.75-0.3,1l-0.29-0.19
			c0.17-0.22,0.26-0.47,0.23-0.77c-0.04-0.37-0.25-0.59-0.54-0.56c-0.31,0.03-0.4,0.33-0.48,0.6l-0.15,0.49
			c-0.12,0.4-0.31,0.71-0.8,0.76c-0.52,0.05-0.97-0.33-1.04-1.01C34.41,23.14,34.55,22.72,34.82,22.41z"/>
	</g>
</g>
<g>
	<g>
		<line class="st0" x1="-42.04" y1="20" x2="-42.04" y2="32"/>
		<polyline class="st0" points="-36.94,27.4 -42.04,32.5 -47.13,27.4 		"/>
	</g>
	<g>
		<g>
			<path d="M-58.6,21.82l0.45-1.84l0.34,0.08l-0.35,1.43l1,0.24l0.3-1.21l0.34,0.08l-0.3,1.21l1.16,0.28l0.36-1.48l0.34,0.08
				l-0.46,1.89L-58.6,21.82z"/>
			<path d="M-56.05,18.96l-1.81,0.16l0.19-0.42l0.95-0.06c0.17-0.01,0.32-0.02,0.54-0.04l0.01-0.02c-0.14-0.16-0.24-0.27-0.34-0.41
				l-0.59-0.74l0.18-0.4l1.1,1.48l1.92-0.18l-0.19,0.42l-1,0.08c-0.18,0.01-0.37,0.03-0.6,0.04l-0.01,0.02
				c0.14,0.17,0.26,0.31,0.37,0.45l0.61,0.8l-0.18,0.4L-56.05,18.96z"/>
			<path d="M-56.39,16.13l0.54-0.77c0.42-0.6,0.91-0.87,1.5-0.46c0.57,0.4,0.55,0.99,0.14,1.58l-0.31,0.44l1.07,0.75l-0.24,0.34
				L-56.39,16.13z M-54.53,16.33c0.33-0.47,0.32-0.82-0.07-1.08c-0.39-0.27-0.68-0.12-1.01,0.35l-0.27,0.38l1.07,0.75L-54.53,16.33z
				"/>
			<path d="M-54.39,13.53l0.3-0.29l2.05,2.08l1.02-1l0.25,0.25l-1.31,1.3L-54.39,13.53z"/>
			<path d="M-51.53,13.02c-0.58-0.88-0.44-1.73,0.25-2.18c0.69-0.45,1.52-0.23,2.1,0.64c0.58,0.88,0.45,1.75-0.23,2.2
				C-50.11,14.14-50.95,13.9-51.53,13.02z M-49.54,11.72c-0.45-0.68-1.04-0.89-1.54-0.57c-0.49,0.32-0.53,0.95-0.09,1.64
				c0.45,0.68,1.06,0.91,1.55,0.59C-49.13,13.06-49.1,12.41-49.54,11.72z"/>
			<path d="M-48.92,9.58l0.96-0.37c0.63-0.24,1.16-0.18,1.4,0.45c0.23,0.61-0.1,1.08-0.73,1.32l-0.57,0.22l0.5,1.3l-0.39,0.15
				L-48.92,9.58z M-47.46,10.69c0.48-0.18,0.67-0.48,0.52-0.87c-0.16-0.4-0.47-0.45-0.95-0.26l-0.51,0.2l0.43,1.14L-47.46,10.69z
				 M-47.4,10.91l0.23-0.32l1.55,1.25l-0.44,0.17L-47.4,10.91z"/>
			<path d="M-45.79,8.53l1.86-0.33l0.06,0.35l-1.45,0.25l0.18,1.01l1.23-0.21l0.06,0.35l-1.22,0.21l0.21,1.18l1.5-0.26l0.06,0.35
				l-1.91,0.33L-45.79,8.53z"/>
			<path d="M-40.37,8.17l0.93,0.14c0.73,0.11,1.18,0.43,1.07,1.14c-0.1,0.68-0.64,0.93-1.35,0.82l-0.53-0.08l-0.2,1.29l-0.41-0.06
				L-40.37,8.17z M-39.73,9.94c0.57,0.09,0.87-0.08,0.94-0.54c0.07-0.47-0.19-0.67-0.76-0.75l-0.46-0.07l-0.2,1.29L-39.73,9.94z"/>
			<path d="M-37.11,8.82l0.96,0.35c0.63,0.23,1,0.62,0.76,1.26c-0.22,0.62-0.78,0.75-1.41,0.52l-0.57-0.21l-0.48,1.3l-0.39-0.14
				L-37.11,8.82z M-36.74,10.61c0.48,0.18,0.81,0.08,0.96-0.32c0.15-0.41-0.06-0.65-0.54-0.82l-0.52-0.19l-0.42,1.14L-36.74,10.61z
				 M-36.84,10.81l0.38-0.09l0.35,1.96l-0.44-0.16L-36.84,10.81z"/>
			<path d="M-35.03,11.37c0.56-0.89,1.39-1.12,2.09-0.67s0.84,1.29,0.28,2.18c-0.56,0.89-1.41,1.13-2.1,0.69
				C-35.46,13.13-35.6,12.26-35.03,11.37z M-33.03,12.64c0.44-0.69,0.38-1.32-0.11-1.64c-0.49-0.31-1.09-0.1-1.53,0.59
				c-0.44,0.69-0.4,1.34,0.1,1.66C-34.07,13.57-33.47,13.33-33.03,12.64z"/>
			<path d="M-33.03,14.13l0.36,0.05c-0.07,0.29-0.01,0.5,0.16,0.66c0.25,0.24,0.52,0.22,0.86-0.14l1.57-1.64l0.3,0.29l-1.6,1.67
				c-0.39,0.41-0.9,0.56-1.36,0.12C-33.05,14.84-33.13,14.51-33.03,14.13z"/>
			<path d="M-28.9,14.33l1.12,1.53l-0.29,0.21l-0.87-1.19l-0.83,0.61l0.74,1l-0.28,0.21l-0.74-1l-0.96,0.71l0.9,1.23l-0.29,0.21
				l-1.15-1.57L-28.9,14.33z"/>
			<path d="M-28.72,17.44c0.96-0.45,1.81-0.17,2.16,0.59c0.17,0.36,0.13,0.73,0.02,0.99l-0.34-0.09c0.09-0.24,0.11-0.49,0-0.74
				c-0.26-0.56-0.9-0.72-1.64-0.37c-0.75,0.35-1.05,0.93-0.78,1.49c0.13,0.28,0.36,0.44,0.66,0.53l-0.14,0.32
				c-0.38-0.11-0.68-0.32-0.86-0.71C-30,18.72-29.69,17.9-28.72,17.44z"/>
			<path d="M-26.04,20.74l-0.24-0.96l0.34-0.09l0.59,2.33l-0.34,0.09l-0.24-0.96l-2.84,0.72l-0.1-0.41L-26.04,20.74z"/>
			<path d="M-28.08,22.99l0.3,0.23c-0.23,0.25-0.37,0.59-0.35,0.93c0.03,0.43,0.26,0.67,0.58,0.65c0.33-0.02,0.43-0.27,0.54-0.58
				l0.18-0.48c0.11-0.31,0.32-0.69,0.8-0.72c0.5-0.03,0.9,0.38,0.94,0.98c0.02,0.39-0.12,0.75-0.35,0.99l-0.28-0.2
				c0.18-0.21,0.28-0.46,0.26-0.76c-0.02-0.37-0.22-0.6-0.52-0.58c-0.32,0.02-0.42,0.31-0.51,0.58l-0.17,0.48
				c-0.14,0.39-0.35,0.7-0.83,0.73c-0.52,0.03-0.96-0.37-1-1.06C-28.53,23.7-28.36,23.29-28.08,22.99z"/>
		</g>
	</g>
</g>
</svg>
