<?xml version="1.0" encoding="utf-8"?>
<!-- Generator: Adobe Illustrator 23.1.0, SVG Export Plug-In . SVG Version: 6.00 Build 0)  -->
<svg version="1.1" id="圖層_1" xmlns="http://www.w3.org/2000/svg" xmlns:xlink="http://www.w3.org/1999/xlink" x="0px" y="0px"
	 viewBox="0 0 60 60" style="enable-background:new 0 0 60 60;" xml:space="preserve">
<style type="text/css">
	.st0{fill-rule:evenodd;clip-rule:evenodd;}
</style>
<g>
	<path class="st0" d="M42.99,23.42l-12.07,8.1c-0.46,0.31-1.22,0.31-1.68,0l-12.07-8.1c-0.76-0.46-1.68-0.31-2.14,0.31
		c-0.46,0.76-0.31,1.68,0.31,2.14l12.07,8.1c0.76,0.46,1.68,0.76,2.6,0.76s1.83-0.31,2.6-0.76l12.07-8.1
		c0.61-0.46,0.76-1.38,0.46-1.99C44.67,23.11,43.75,22.96,42.99,23.42z"/>
	<path class="st0" d="M30,0C13.44,0,0,13.44,0,30s13.44,30,30,30s30-13.44,30-30S46.56,0,30,0z M48.33,38.39
		c0,3.36-2.75,6.11-6.11,6.11H17.78c-3.36,0-6.11-2.75-6.11-6.11V23.11c0-3.36,2.75-6.11,6.11-6.11h24.44
		c3.36,0,6.11,2.75,6.11,6.11V38.39z"/>
</g>
</svg>
